<mxfile host="app.diagrams.net" modified="2023-01-22T15:08:54.030Z" agent="5.0 (Windows NT 10.0; Win64; x64) AppleWebKit/537.36 (KHTML, like Gecko) Chrome/108.0.0.0 Safari/537.36" etag="sW_5q6djAJ69s_hr5OyI" version="20.8.6" type="github">
  <diagram name="Page-1" id="12e1b939-464a-85fe-373e-61e167be1490">
    <mxGraphModel dx="2575" dy="1175" grid="1" gridSize="10" guides="1" tooltips="1" connect="1" arrows="1" fold="1" page="1" pageScale="1.5" pageWidth="1169" pageHeight="826" background="none" math="0" shadow="0">
      <root>
        <mxCell id="0" />
        <mxCell id="1" parent="0" />
        <mxCell id="60da8b9f42644d3a-2" value="" style="whiteSpace=wrap;html=1;rounded=1;shadow=0;strokeWidth=8;fontSize=20;align=center;fillColor=#FFE6CC;strokeColor=#FFFFFF;" parent="1" vertex="1">
          <mxGeometry x="316" y="405" width="280" height="430" as="geometry" />
        </mxCell>
        <mxCell id="60da8b9f42644d3a-3" value="Nmap" style="text;html=1;strokeColor=none;fillColor=#FFE6CC;align=center;verticalAlign=middle;whiteSpace=wrap;rounded=0;shadow=0;fontSize=27;fontColor=#FFFFFF;fontStyle=1" parent="1" vertex="1">
          <mxGeometry x="316" y="425" width="280" height="60" as="geometry" />
        </mxCell>
        <mxCell id="60da8b9f42644d3a-4" value="" style="text;html=1;strokeColor=none;fillColor=#FFE6CC;align=center;verticalAlign=middle;whiteSpace=wrap;rounded=0;shadow=0;fontSize=14;fontColor=#FFFFFF;" parent="1" vertex="1">
          <mxGeometry x="316" y="725" width="280" height="90" as="geometry" />
        </mxCell>
        <mxCell id="60da8b9f42644d3a-6" value="" style="line;strokeWidth=2;html=1;rounded=0;shadow=0;fontSize=27;align=center;fillColor=#FFE6CC;strokeColor=#FFFFFF;" parent="1" vertex="1">
          <mxGeometry x="336" y="485" width="240" height="10" as="geometry" />
        </mxCell>
        <mxCell id="60da8b9f42644d3a-7" value="" style="line;strokeWidth=2;html=1;rounded=0;shadow=0;fontSize=27;align=center;fillColor=#FFE6CC;strokeColor=#FFFFFF;" parent="1" vertex="1">
          <mxGeometry x="336" y="705" width="240" height="10" as="geometry" />
        </mxCell>
        <mxCell id="60da8b9f42644d3a-9" value="" style="html=1;shadow=0;dashed=0;align=center;verticalAlign=middle;shape=mxgraph.arrows2.stylisedArrow;dy=0.6;dx=40;notch=15;feather=0.4;rounded=0;strokeWidth=1;fontSize=27;strokeColor=none;fillColor=#FFE6CC;" parent="1" vertex="1">
          <mxGeometry x="406" y="573" width="100" height="60" as="geometry" />
        </mxCell>
        <mxCell id="60da8b9f42644d3a-17" value="" style="whiteSpace=wrap;html=1;rounded=1;shadow=0;strokeWidth=8;fontSize=20;align=center;fillColor=#FFCC99;strokeColor=#FFFFFF;" parent="1" vertex="1">
          <mxGeometry x="596" y="405" width="280" height="430" as="geometry" />
        </mxCell>
        <mxCell id="60da8b9f42644d3a-18" value="Nikto" style="text;html=1;strokeColor=none;fillColor=#FFCC99;align=center;verticalAlign=middle;whiteSpace=wrap;rounded=0;shadow=0;fontSize=27;fontColor=#FFFFFF;fontStyle=1" parent="1" vertex="1">
          <mxGeometry x="596" y="425" width="280" height="60" as="geometry" />
        </mxCell>
        <mxCell id="60da8b9f42644d3a-20" value="" style="line;strokeWidth=2;html=1;rounded=0;shadow=0;fontSize=27;align=center;fillColor=#FFCC99;strokeColor=#FFFFFF;" parent="1" vertex="1">
          <mxGeometry x="616" y="485" width="240" height="10" as="geometry" />
        </mxCell>
        <mxCell id="60da8b9f42644d3a-21" value="" style="line;strokeWidth=2;html=1;rounded=0;shadow=0;fontSize=27;align=center;fillColor=#FFCC99;strokeColor=#FFFFFF;" parent="1" vertex="1">
          <mxGeometry x="616" y="705" width="240" height="10" as="geometry" />
        </mxCell>
        <mxCell id="60da8b9f42644d3a-23" value="" style="html=1;shadow=0;dashed=0;align=center;verticalAlign=middle;shape=mxgraph.arrows2.stylisedArrow;dy=0.6;dx=40;notch=15;feather=0.4;rounded=0;strokeWidth=1;fontSize=27;strokeColor=none;fillColor=#FFCC99;" parent="1" vertex="1">
          <mxGeometry x="686" y="573" width="100" height="60" as="geometry" />
        </mxCell>
        <mxCell id="60da8b9f42644d3a-24" value="" style="whiteSpace=wrap;html=1;rounded=1;shadow=0;strokeWidth=8;fontSize=20;align=center;fillColor=#FF9933;strokeColor=#FFFFFF;" parent="1" vertex="1">
          <mxGeometry x="876" y="405" width="280" height="430" as="geometry" />
        </mxCell>
        <mxCell id="60da8b9f42644d3a-25" value="fuff Dirb Gobuster" style="text;html=1;strokeColor=none;fillColor=#FF9933;align=center;verticalAlign=middle;whiteSpace=wrap;rounded=0;shadow=0;fontSize=27;fontColor=#FFFFFF;fontStyle=1" parent="1" vertex="1">
          <mxGeometry x="876" y="425" width="280" height="60" as="geometry" />
        </mxCell>
        <mxCell id="60da8b9f42644d3a-27" value="" style="line;strokeWidth=2;html=1;rounded=0;shadow=0;fontSize=27;align=center;fillColor=#FF9933;strokeColor=#FFFFFF;" parent="1" vertex="1">
          <mxGeometry x="896" y="485" width="240" height="10" as="geometry" />
        </mxCell>
        <mxCell id="60da8b9f42644d3a-28" value="" style="line;strokeWidth=2;html=1;rounded=0;shadow=0;fontSize=27;align=center;fillColor=#FF9933;strokeColor=#FFFFFF;" parent="1" vertex="1">
          <mxGeometry x="896" y="705" width="240" height="10" as="geometry" />
        </mxCell>
        <mxCell id="60da8b9f42644d3a-30" value="" style="html=1;shadow=0;dashed=0;align=center;verticalAlign=middle;shape=mxgraph.arrows2.stylisedArrow;dy=0.6;dx=40;notch=15;feather=0.4;rounded=0;strokeWidth=1;fontSize=27;strokeColor=none;fillColor=#FF9933;" parent="1" vertex="1">
          <mxGeometry x="966" y="573" width="100" height="60" as="geometry" />
        </mxCell>
        <mxCell id="60da8b9f42644d3a-31" value="" style="whiteSpace=wrap;html=1;rounded=1;shadow=0;strokeWidth=8;fontSize=20;align=center;fillColor=#FF8000;strokeColor=#FFFFFF;" parent="1" vertex="1">
          <mxGeometry x="1156" y="405" width="280" height="430" as="geometry" />
        </mxCell>
        <mxCell id="60da8b9f42644d3a-32" value="WPScan" style="text;html=1;strokeColor=none;fillColor=#FF8000;align=center;verticalAlign=middle;whiteSpace=wrap;rounded=0;shadow=0;fontSize=27;fontColor=#FFFFFF;fontStyle=1" parent="1" vertex="1">
          <mxGeometry x="1156" y="425" width="280" height="60" as="geometry" />
        </mxCell>
        <mxCell id="60da8b9f42644d3a-34" value="" style="line;strokeWidth=2;html=1;rounded=0;shadow=0;fontSize=27;align=center;fillColor=#FF8000;strokeColor=#FFFFFF;" parent="1" vertex="1">
          <mxGeometry x="1176" y="485" width="240" height="10" as="geometry" />
        </mxCell>
        <mxCell id="60da8b9f42644d3a-35" value="" style="line;strokeWidth=2;html=1;rounded=0;shadow=0;fontSize=27;align=center;fillColor=#FF8000;strokeColor=#FFFFFF;" parent="1" vertex="1">
          <mxGeometry x="1176" y="705" width="240" height="10" as="geometry" />
        </mxCell>
        <mxCell id="60da8b9f42644d3a-37" value="" style="html=1;shadow=0;dashed=0;align=center;verticalAlign=middle;shape=mxgraph.arrows2.stylisedArrow;dy=0.6;dx=40;notch=15;feather=0.4;rounded=0;strokeWidth=1;fontSize=27;strokeColor=none;fillColor=#FF8000;" parent="1" vertex="1">
          <mxGeometry x="1246" y="573" width="100" height="60" as="geometry" />
        </mxCell>
        <mxCell id="1PHFakreQ9la2d_mK0U4-19" value="" style="whiteSpace=wrap;html=1;rounded=1;shadow=0;strokeWidth=8;fontSize=20;align=center;fillColor=#CC6600;strokeColor=#FFFFFF;" vertex="1" parent="1">
          <mxGeometry x="1436" y="405" width="280" height="430" as="geometry" />
        </mxCell>
        <mxCell id="1PHFakreQ9la2d_mK0U4-20" value="Metasploit Framework" style="text;html=1;strokeColor=none;fillColor=#CC6600;align=center;verticalAlign=middle;whiteSpace=wrap;rounded=0;shadow=0;fontSize=27;fontColor=#FFFFFF;fontStyle=1" vertex="1" parent="1">
          <mxGeometry x="1436" y="425" width="280" height="60" as="geometry" />
        </mxCell>
        <mxCell id="1PHFakreQ9la2d_mK0U4-22" value="" style="line;strokeWidth=2;html=1;rounded=0;shadow=0;fontSize=27;align=center;fillColor=#CC6600;strokeColor=#FFFFFF;" vertex="1" parent="1">
          <mxGeometry x="1456" y="485" width="240" height="10" as="geometry" />
        </mxCell>
        <mxCell id="1PHFakreQ9la2d_mK0U4-23" value="" style="line;strokeWidth=2;html=1;rounded=0;shadow=0;fontSize=27;align=center;fillColor=#CC6600;strokeColor=#FFFFFF;" vertex="1" parent="1">
          <mxGeometry x="1456" y="705" width="240" height="10" as="geometry" />
        </mxCell>
        <mxCell id="1PHFakreQ9la2d_mK0U4-24" value="" style="html=1;shadow=0;dashed=0;align=center;verticalAlign=middle;shape=mxgraph.arrows2.stylisedArrow;dy=0.6;dx=40;notch=15;feather=0.4;rounded=0;strokeWidth=1;fontSize=27;strokeColor=none;fillColor=#CC6600;" vertex="1" parent="1">
          <mxGeometry x="1526" y="573" width="100" height="60" as="geometry" />
        </mxCell>
        <mxCell id="1PHFakreQ9la2d_mK0U4-25" value="" style="whiteSpace=wrap;html=1;rounded=1;shadow=0;strokeWidth=8;fontSize=20;align=center;fillColor=#994C00;strokeColor=#FFFFFF;" vertex="1" parent="1">
          <mxGeometry x="1716" y="405" width="280" height="430" as="geometry" />
        </mxCell>
        <mxCell id="1PHFakreQ9la2d_mK0U4-26" value="GreenBone" style="text;html=1;strokeColor=none;fillColor=#994C00;align=center;verticalAlign=middle;whiteSpace=wrap;rounded=0;shadow=0;fontSize=27;fontColor=#FFFFFF;fontStyle=1" vertex="1" parent="1">
          <mxGeometry x="1716" y="425" width="280" height="60" as="geometry" />
        </mxCell>
        <mxCell id="1PHFakreQ9la2d_mK0U4-28" value="" style="line;strokeWidth=2;html=1;rounded=0;shadow=0;fontSize=27;align=center;fillColor=#994C00;strokeColor=#FFFFFF;" vertex="1" parent="1">
          <mxGeometry x="1736" y="485" width="240" height="10" as="geometry" />
        </mxCell>
        <mxCell id="1PHFakreQ9la2d_mK0U4-29" value="" style="line;strokeWidth=2;html=1;rounded=0;shadow=0;fontSize=27;align=center;fillColor=#994C00;strokeColor=#FFFFFF;" vertex="1" parent="1">
          <mxGeometry x="1736" y="705" width="240" height="10" as="geometry" />
        </mxCell>
        <mxCell id="1PHFakreQ9la2d_mK0U4-30" value="" style="html=1;shadow=0;dashed=0;align=center;verticalAlign=middle;shape=mxgraph.arrows2.stylisedArrow;dy=0.6;dx=40;notch=15;feather=0.4;rounded=0;strokeWidth=1;fontSize=27;strokeColor=none;fillColor=#994C00;" vertex="1" parent="1">
          <mxGeometry x="1806" y="573" width="100" height="60" as="geometry" />
        </mxCell>
        <mxCell id="1PHFakreQ9la2d_mK0U4-31" value="" style="whiteSpace=wrap;html=1;rounded=1;shadow=0;strokeWidth=8;fontSize=20;align=center;fillColor=#663300;strokeColor=#FFFFFF;" vertex="1" parent="1">
          <mxGeometry x="1996" y="405" width="280" height="430" as="geometry" />
        </mxCell>
        <mxCell id="1PHFakreQ9la2d_mK0U4-32" value="Privilege escalation" style="text;html=1;strokeColor=none;fillColor=#663300;align=center;verticalAlign=middle;whiteSpace=wrap;rounded=0;shadow=0;fontSize=27;fontColor=#FFFFFF;fontStyle=1" vertex="1" parent="1">
          <mxGeometry x="1996" y="425" width="280" height="60" as="geometry" />
        </mxCell>
        <mxCell id="1PHFakreQ9la2d_mK0U4-34" value="" style="line;strokeWidth=2;html=1;rounded=0;shadow=0;fontSize=27;align=center;fillColor=#663300;strokeColor=#FFFFFF;" vertex="1" parent="1">
          <mxGeometry x="2016" y="485" width="240" height="10" as="geometry" />
        </mxCell>
        <mxCell id="1PHFakreQ9la2d_mK0U4-35" value="" style="line;strokeWidth=2;html=1;rounded=0;shadow=0;fontSize=27;align=center;fillColor=#663300;strokeColor=#FFFFFF;" vertex="1" parent="1">
          <mxGeometry x="2016" y="705" width="240" height="10" as="geometry" />
        </mxCell>
        <mxCell id="1PHFakreQ9la2d_mK0U4-36" value="" style="html=1;shadow=0;dashed=0;align=center;verticalAlign=middle;shape=mxgraph.arrows2.stylisedArrow;dy=0.6;dx=40;notch=15;feather=0.4;rounded=0;strokeWidth=1;fontSize=27;strokeColor=none;fillColor=#663300;" vertex="1" parent="1">
          <mxGeometry x="2086" y="573" width="100" height="60" as="geometry" />
        </mxCell>
        <mxCell id="1PHFakreQ9la2d_mK0U4-37" value="&lt;font style=&quot;font-size: 24px;&quot;&gt;&lt;b&gt;discover the hosts and&lt;br&gt;services information.&lt;/b&gt;&lt;/font&gt;" style="text;html=1;fontColor=white;strokeColor=none;fillColor=none;align=center;verticalAlign=middle;whiteSpace=wrap;rounded=0;shadow=0;" vertex="1" parent="1">
          <mxGeometry x="321" y="485" width="270" height="220" as="geometry" />
        </mxCell>
        <mxCell id="1PHFakreQ9la2d_mK0U4-41" value="&lt;font style=&quot;font-size: 24px;&quot;&gt;&lt;b&gt;perform a quick, comprehensive&lt;br&gt;scan to check for version specific problems and server configuration items.&lt;/b&gt;&lt;/font&gt;" style="text;html=1;fontColor=white;strokeColor=none;fillColor=none;align=center;verticalAlign=middle;whiteSpace=wrap;rounded=0;shadow=0;" vertex="1" parent="1">
          <mxGeometry x="601" y="485" width="270" height="220" as="geometry" />
        </mxCell>
        <mxCell id="1PHFakreQ9la2d_mK0U4-42" value="&lt;font style=&quot;font-size: 24px;&quot;&gt;&lt;b&gt;enumerate file directories.&lt;/b&gt;&lt;/font&gt;" style="text;html=1;fontColor=white;strokeColor=none;fillColor=none;align=center;verticalAlign=middle;whiteSpace=wrap;rounded=0;shadow=0;" vertex="1" parent="1">
          <mxGeometry x="881" y="485" width="270" height="220" as="geometry" />
        </mxCell>
        <mxCell id="1PHFakreQ9la2d_mK0U4-43" value="&lt;b&gt;&lt;font style=&quot;font-size: 24px;&quot;&gt;&amp;nbsp;scan and attack the vulnerabilities in WordPress.&lt;/font&gt;&lt;/b&gt;" style="text;html=1;fontColor=white;strokeColor=none;fillColor=none;align=center;verticalAlign=middle;whiteSpace=wrap;rounded=0;shadow=0;" vertex="1" parent="1">
          <mxGeometry x="1161" y="485" width="270" height="220" as="geometry" />
        </mxCell>
        <mxCell id="1PHFakreQ9la2d_mK0U4-44" value="&lt;font style=&quot;font-size: 24px;&quot;&gt;&lt;b&gt;find, exploit and verify&lt;br&gt;the vulnerabilities of the services found&lt;/b&gt;&lt;/font&gt;" style="text;html=1;fontColor=white;strokeColor=none;fillColor=none;align=center;verticalAlign=middle;whiteSpace=wrap;rounded=0;shadow=0;" vertex="1" parent="1">
          <mxGeometry x="1441" y="485" width="270" height="220" as="geometry" />
        </mxCell>
        <mxCell id="1PHFakreQ9la2d_mK0U4-45" value="&lt;font style=&quot;font-size: 24px;&quot;&gt;&lt;b&gt;verify and refine the test&lt;br/&gt;results.&lt;/b&gt;&lt;/font&gt;" style="text;html=1;fontColor=white;strokeColor=none;fillColor=none;align=center;verticalAlign=middle;whiteSpace=wrap;rounded=0;shadow=0;" vertex="1" parent="1">
          <mxGeometry x="1721" y="485" width="270" height="220" as="geometry" />
        </mxCell>
        <mxCell id="1PHFakreQ9la2d_mK0U4-46" value="&lt;font style=&quot;font-size: 24px;&quot;&gt;&lt;b&gt;Try privilege escalation&lt;br/&gt;and persistence&lt;/b&gt;&lt;/font&gt;" style="text;html=1;fontColor=white;strokeColor=none;fillColor=none;align=center;verticalAlign=middle;whiteSpace=wrap;rounded=0;shadow=0;" vertex="1" parent="1">
          <mxGeometry x="2001" y="485" width="270" height="220" as="geometry" />
        </mxCell>
      </root>
    </mxGraphModel>
  </diagram>
</mxfile>
